<svg width="0" height="0" class="hidden">
  <symbol xmlns="http://www.w3.org/2000/svg" viewBox="0 0 512 512" id="instagram">
    <title>instagram-glyph</title>
    <circle cx="256" cy="256" r="256" fill="#929292"></circle>
    <path d="M366.28 233.93h-25a88.22 88.22 0 11-170.64 0h-25v121.32a11 11 0 0011 11h198.6a11 11 0 0011-11zm0-77.19a11 11 0 00-11-11h-33.11a11 11 0 00-11 11v33.09a11 11 0 0011 11h33.07a11 11 0 0011-11zM256 200.86A55.14 55.14 0 10311.14 256 55.13 55.13 0 00256 200.86m110.28 198.5H145.72a33.09 33.09 0 01-33.08-33.09V145.72a33.08 33.08 0 0133.08-33.08h220.56a33.07 33.07 0 0133.08 33.08v220.55a33.08 33.08 0 01-33.08 33.09" fill="#fff" fill-rule="evenodd"></path>
  </symbol>
  <symbol xmlns="http://www.w3.org/2000/svg" viewBox="0 0 512 512" id="facebook">
    <title>facebook-glyph</title>
    <circle cx="256" cy="256" r="256" fill="#929292"></circle>
    <path d="M380.55 116h-249.1A15.45 15.45 0 00116 131.45v249.1A15.45 15.45 0 00131.45 396h134.1V287.57h-36.48v-42.26h36.49v-31.16c0-36.16 22.09-55.86 54.35-55.86a299.1 299.1 0 0132.6 1.71v37.8h-22.37c-17.55 0-20.95 8.34-20.95 20.57v27H351l-5.45 42.26H309.2V396h71.35A15.45 15.45 0 00396 380.55v-249.1A15.45 15.45 0 00380.55 116z" fill="#fff"></path>
  </symbol>
  <symbol xmlns="http://www.w3.org/2000/svg" viewBox="0 0 512 512" id="twitter">
    <title>twitter-glyph</title>
    <circle cx="256" cy="256" r="256" fill="#929292"></circle>
    <path d="M399.36 167.08a117.51 117.51 0 01-33.78 9.26 59 59 0 0025.86-32.54 117.78 117.78 0 01-37.35 14.27 58.88 58.88 0 00-100.24 53.65 167 167 0 01-121.25-61.46 58.89 58.89 0 0018.2 78.54 58.57 58.57 0 01-26.64-7.36v.74a58.86 58.86 0 0047.19 57.68 59 59 0 01-26.57 1 58.89 58.89 0 0055 40.85 118 118 0 01-73.06 25.18 119.64 119.64 0 01-14-.82 166.48 166.48 0 0090.17 26.43c108.2 0 167.37-89.63 167.37-167.37q0-3.83-.17-7.61a119.46 119.46 0 0029.27-30.44z" fill="#fff"></path>
  </symbol>
</svg>
